<svg xmlns="http://www.w3.org/2000/svg" viewBox="0 0 297 297"><path d="M225.333.636c-13.335 0-25.043 2.609-35.123 6.366.53 1.689.989 3.432 1.249 5.227.554 3.827.48 7.75-.243 11.684 9.453-4.152 20.98-7.277 34.273-7.277 15.436 0 29.481 5.719 39.842 16.103C275.539 42.97 281 56.784 281 71.636v154c0 10.83-2.431 21.026-7.261 29.668-.041-3.464-.327-7.098-1.046-10.907l-6.327-33.757-2.511-13.42c-4.771-25.286-11.176-38.648-14.868-44.69 1.563-5.494 3.569-15.579 1.487-26.617-2.667-14.132-8.706-24.616-19.517-33.792l-19.756-34.285a8 8 0 0 0-14.516 1.451l-6.339 18.91c-2.708.161-5.574.53-8.681 1.115l-5.3 1.001c-3.085.582-5.902 1.287-8.498 2.13l-12.772-15.214a7.999 7.999 0 0 0-14.037 3.945l-5.918 39.077c-6.723 12.483-8.53 24.44-5.867 38.556 2.088 11.068 7.7 19.731 11.204 24.27-1.194 6.963-2.23 21.708 2.531 46.946l8.9 47.177c2.107 11.169 6.677 18.935 13.971 23.74 7.666 5.051 16.95 5.764 24.183 5.82 1.016.008 2.525.012 4.374.012 4.61 0 11.407-.021 17.896-.049 9.618-.039 18.562-.087 18.711-.088.17-.001.172-.01.341-.022 37.564-.472 65.616-30.816 65.616-70.977v-154c0-39.813-31.386-71-71.667-71z"/><path d="M127.286 222.968c-4.046-21.445-4.202-36.358-3.424-45.724-3.883-6.075-8.307-14.846-10.312-25.473-3.126-16.567-1.11-31.795 6.163-46.509l3.691-24.371a81.103 81.103 0 0 0-2.771-.578l-5.304-1.001c-3.104-.585-5.97-.954-8.678-1.115l-6.339-18.91a8 8 0 0 0-14.517-1.451L66.041 92.121c-10.811 9.176-16.853 19.66-19.52 33.793-2.082 11.037-.082 21.122 1.481 26.616-3.692 6.042-10.108 19.404-14.879 44.69l-8.9 47.177c-.629 3.333-1.152 6.528-1.261 9.598C18.534 245.631 16 235.912 16 225.636v-154c0-30.841 24.764-55 56.166-55 12.691 0 23.872 2.894 33.103 6.81a35.907 35.907 0 0 1-.145-11.218c.279-1.928.758-3.796 1.347-5.6A100.997 100.997 0 0 0 72.156.636C31.782.636 0 31.823 0 71.636v154c0 39.663 27.83 69.748 64.88 70.943l.39.03c.2.017.443.025.644.026.251.001 25.186.137 36.628.137 1.849 0 3.369-.004 4.384-.012 11.601-.091 24.876-2.147 32.686-14.68-1.472-3.693-2.622-7.684-3.429-11.963l-8.897-47.149zM148.49 49.47c37.505-23.93 27.104-45.249 17.174-48.428-8.372-2.673-14.299 1.549-17.174 7.911-3.453-5.698-8.802-10.584-17.17-7.911-9.934 3.179-20.336 24.499 17.17 48.428z"/></svg>